<?xml version="1.0" encoding="UTF-8"?>
<svg width="32" height="32" viewBox="0 0 32 32" fill="none" xmlns="http://www.w3.org/2000/svg">
  <!-- 背景 -->
  <rect width="32" height="32" rx="8" fill="#1890FF"/>
  
  <!-- 发光效果 -->
  <rect width="32" height="32" rx="8" fill="url(#paint0_radial)"/>
  
  <!-- 卷轴装饰 -->
  <path d="M6 8C6 6.89543 6.89543 6 8 6H24C25.1046 6 26 6.89543 26 8V24C26 25.1046 25.1046 26 24 26H8C6.89543 26 6 25.1046 6 24V8Z" fill="white" fill-opacity="0.15"/>
  
  <!-- 上卷轴 -->
  <path d="M7 8C7 7.44772 7.44772 7 8 7H24C24.5523 7 25 7.44772 25 8V9C25 9.55228 24.5523 10 24 10H8C7.44772 10 7 9.55228 7 9V8Z" fill="white" fill-opacity="0.9"/>
  <path d="M6 8C6 6.89543 6.89543 6 8 6H9V10H8C6.89543 10 6 9.10457 6 8Z" fill="white" fill-opacity="0.7"/>
  
  <!-- 下卷轴 -->
  <path d="M7 23C7 22.4477 7.44772 22 8 22H24C24.5523 22 25 22.4477 25 23V24C25 24.5523 24.5523 25 24 25H8C7.44772 25 7 24.5523 7 24V23Z" fill="white" fill-opacity="0.9"/>
  <path d="M6 24C6 25.1046 6.89543 26 8 26H9V22H8C6.89543 22 6 22.8954 6 24Z" fill="white" fill-opacity="0.7"/>
  
  <!-- 毛笔"诗"字 -->
  <path d="M16 11.5C14 11.5 12.5 12.5 12.5 14C12.5 15.2 13.5 16 15 16.2C13.8 16.5 12.5 17.3 12.5 18.5C12.5 20 14 21 16 21M16 11.5C18 11.5 19.5 12.5 19.5 14C19.5 15.2 18.5 16 17 16.2C18.2 16.5 19.5 17.3 19.5 18.5C19.5 20 18 21 16 21M16 11.5V21" 
        stroke="white" 
        stroke-width="2" 
        stroke-linecap="round" 
        stroke-linejoin="round"
        style="paint-order: stroke;"
  />
  
  <!-- 水墨效果 -->
  <circle cx="14" cy="14" r="1" fill="white" fill-opacity="0.5"/>
  <circle cx="18" cy="18" r="1" fill="white" fill-opacity="0.5"/>
  
  <!-- 装饰点 -->
  <circle cx="11" cy="8.5" r="0.5" fill="#1890FF"/>
  <circle cx="21" cy="8.5" r="0.5" fill="#1890FF"/>
  <circle cx="11" cy="23.5" r="0.5" fill="#1890FF"/>
  <circle cx="21" cy="23.5" r="0.5" fill="#1890FF"/>
  
  <!-- 渐变定义 -->
  <defs>
    <radialGradient id="paint0_radial" cx="0" cy="0" r="1" gradientUnits="userSpaceOnUse" gradientTransform="translate(16 16) rotate(90) scale(16)">
      <stop offset="0" stop-color="white" stop-opacity="0.1"/>
      <stop offset="1" stop-color="white" stop-opacity="0"/>
    </radialGradient>
  </defs>
</svg> 